<svg width="48" height="48" viewBox="0 0 48 48" fill="none" xmlns="http://www.w3.org/2000/svg">
  <defs>
    <linearGradient id="g" x1="0%" y1="100%" x2="60%" y2="0%">
      <stop offset="0%" stop-color="#e11d48"/>
      <stop offset="100%" stop-color="#fb923c"/>
    </linearGradient>
  </defs>
  <rect width="48" height="48" rx="14" fill="url(#g)"/>
  <path d="M24 8 C24 8 32 16 32 23 C32 28 29 31 27 32 C28 28 25 25 23 25 C21 25 18 28 19 32 C17 29 16 26 16 23 C16 16 24 8 24 8Z" fill="white" opacity="0.95"/>
  <path d="M24 22 C24 22 28 26 28 30 C28 33 26 35 24 35 C22 35 20 33 20 30 C20 26 24 22 24 22Z" fill="white" opacity="0.55"/>
</svg>